<svg xmlns="http://www.w3.org/2000/svg" xmlns:xlink="http://www.w3.org/1999/xlink" width="622px" height="537px" version="1.1"><defs/><g transform="translate(0.5,0.5)"><ellipse cx="405" cy="384" rx="151.8115922337329" ry="53.18840776626723" fill-opacity="0.5" fill="#009900" stroke="none" transform="rotate(90,405,384)" pointer-events="none"/><ellipse cx="444" cy="292" rx="98.60872486016281" ry="93.99585632432449" fill-opacity="0.5" fill="#ff8000" stroke="none" transform="rotate(165,444,292)" pointer-events="none"/><ellipse cx="426" cy="204" rx="185.00000000000003" ry="90.64413028156577" fill-opacity="0.5" fill="#003366" stroke="none" transform="rotate(-75,426,204)" pointer-events="none"/><ellipse cx="334" cy="344" rx="142.74772644854943" ry="89.67056351476393" fill-opacity="0.5" fill="#ffff33" stroke="none" transform="rotate(-30,334,344)" pointer-events="none"/><ellipse cx="468" cy="362" rx="129.99999999999991" ry="84.3558697184342" fill-opacity="0.5" fill="#cc0000" stroke="none" transform="rotate(45,468,362)" pointer-events="none"/><ellipse cx="313" cy="252" rx="160.870508877033" ry="88.85406863499759" fill-opacity="0.5" fill="#009999" stroke="none" transform="rotate(30,313,252)" pointer-events="none"/><ellipse cx="21" cy="24" rx="19.99999999999997" ry="20.934383872221574" fill-opacity="0.5" fill="#ffff33" stroke="none" pointer-events="none"/><ellipse cx="21" cy="72" rx="20" ry="19.04614695806322" fill-opacity="0.5" fill="#ff8000" stroke="none" pointer-events="none"/><ellipse cx="21" cy="124" rx="20" ry="18.711739436868584" fill-opacity="0.5" fill="#003366" stroke="none" pointer-events="none"/><ellipse cx="21" cy="174" rx="20" ry="19.04614695806322" fill-opacity="0.5" fill="#cc0000" stroke="none" pointer-events="none"/><ellipse cx="21" cy="223" rx="19.99999999999997" ry="19.600858087357295" fill-opacity="0.5" fill="#009999" stroke="none" pointer-events="none"/><rect x="51" y="14" width="30" height="20" fill="none" stroke="none" pointer-events="none"/><g fill="#000000" font-family="Helvetica" font-weight="bold" font-size="14px"><text x="53" y="29">Science</text></g><rect x="51" y="63" width="30" height="19" fill="none" stroke="none" pointer-events="none"/><g fill="#000000" font-family="Helvetica" font-weight="bold" font-size="14px"><text x="53" y="78">GIS</text></g><rect x="51" y="113" width="30" height="21" fill="none" stroke="none" pointer-events="none"/><g fill="#000000" font-family="Helvetica" font-weight="bold" font-size="14px"><text x="53" y="128">Web</text></g><rect x="51" y="163" width="30" height="20" fill="none" stroke="none" pointer-events="none"/><g fill="#000000" font-family="Helvetica" font-weight="bold" font-size="14px"><text x="53" y="178">System</text></g><rect x="51" y="213" width="30" height="20" fill="none" stroke="none" pointer-events="none"/><g fill="#000000" font-family="Helvetica" font-weight="bold" font-size="14px"><text x="53" y="228">Data</text></g><ellipse cx="405" cy="303" rx="60" ry="59.35586971843412" fill="#ffffff" stroke="#000000" pointer-events="none"/><ellipse cx="21" cy="275" rx="19.99999999999997" ry="19.600858087357295" fill-opacity="0.5" fill="#009900" stroke="none" pointer-events="none"/><rect x="51" y="265" width="30" height="20" fill="none" stroke="none" pointer-events="none"/><g fill="#000000" font-family="Helvetica" font-weight="bold" font-size="14px"><text x="53" y="280">Engineering</text></g></g></svg>